<svg xmlns="http://www.w3.org/2000/svg" viewBox="0 0 90 35"><defs><style>.a{fill:#fff;}</style></defs><path class="a" d="M10.18018,10.89014a1.84014,1.84014,0,0,1-.52637,1.25439,1.93963,1.93963,0,0,1-1.40235.46,2.0722,2.0722,0,0,1-1.00195-.21924,1.81061,1.81061,0,0,1-.64551-.582,2.41286,2.41286,0,0,1-.34863-.84228,4.727,4.727,0,0,1-.10351-1.00537,5.08375,5.08375,0,0,1,.09277-.98682,2.36762,2.36762,0,0,1,.33008-.84229,1.71458,1.71458,0,0,1,.6455-.58593,2.16287,2.16287,0,0,1,1.03125-.21924,1.94538,1.94538,0,0,1,1.376.44531,1.80583,1.80583,0,0,1,.55274,1.19483H9.28271A1.12668,1.12668,0,0,0,9.17529,8.646a.97467.97467,0,0,0-.20019-.26709.92059.92059,0,0,0-.293-.18213,1.03591,1.03591,0,0,0-.37891-.06641H8.20654a1.04456,1.04456,0,0,0-.58593.15186,1.07368,1.07368,0,0,0-.36329.4082,1.88438,1.88438,0,0,0-.18554.58252A4.281,4.281,0,0,0,7.02,9.95557a4.57751,4.57751,0,0,0,.04785.66406,1.95742,1.95742,0,0,0,.17774.58984,1.13125,1.13125,0,0,0,.36035.42285,1.01475,1.01475,0,0,0,.60058.16309h.08985a.98871.98871,0,0,0,.40429-.07764.92113.92113,0,0,0,.29688-.208,1.02368,1.02368,0,0,0,.19238-.28907,1.19145,1.19145,0,0,0,.09277-.33056Z"/><path class="a" d="M11.02588,7.39551h.86133v4.32568h2.21093v.81641H11.02588Z"/><path class="a" d="M15.63428,7.39551V12.5376H14.773V7.39551Z"/><path class="a" d="M19.188,11.291l1.44726-3.89551h1.002V12.5376h-.85352V8.99854L19.48486,12.5376h-.60058L17.58545,8.99854V12.5376h-.8457V7.39551h1.002Z"/><path class="a" d="M25.9917,12.5376l-.48242-1.27637H23.52783l-.48144,1.27637h-.90528L24.144,7.39551h.75684l2.01855,5.14209ZM24.523,8.49365l-.69824,1.98877H25.2124Z"/><path class="a" d="M30.771,7.39551v.80908H29.19775v4.333h-.85351v-4.333H26.77881V7.39551Z"/><path class="a" d="M34.60645,8.21191H32.269V9.562h2.19678v.80176H32.269v1.35742h2.397v.81641H31.40771V7.39551h3.19874Z"/><path class="a" d="M14.09033,15.05957H11.75342v1.3501h2.19629v.80176H11.75342v1.35693H14.1499v.81641H10.89209V14.24316h3.19824Z"/><path class="a" d="M18.06787,15.05225H15.84912v1.3872h2.12207v.79395H15.84912v2.15137h-.876V14.24316h3.09473Z"/><path class="a" d="M21.91846,15.05225H19.69971v1.3872h2.12207v.79395H19.69971v2.15137h-.876V14.24316h3.09473Z"/><path class="a" d="M25.87256,15.05957H23.53564v1.3501h2.19629v.80176H23.53564v1.35693h2.39649v.81641H22.67432V14.24316h3.19824Z"/><path class="a" d="M30.50244,17.73779a1.8401,1.8401,0,0,1-.52637,1.2544,1.93961,1.93961,0,0,1-1.40234.46,2.06652,2.06652,0,0,1-1.002-.21973,1.8017,1.8017,0,0,1-.64551-.582,2.4101,2.4101,0,0,1-.34863-.8418,4.72621,4.72621,0,0,1-.10352-1.00537,5.08358,5.08358,0,0,1,.09277-.98681,2.368,2.368,0,0,1,.33008-.84229,1.71463,1.71463,0,0,1,.64551-.58594,2.16294,2.16294,0,0,1,1.03125-.21923,1.94535,1.94535,0,0,1,1.376.44531,1.80582,1.80582,0,0,1,.55273,1.19482H29.605a1.1269,1.1269,0,0,0-.10742-.31543.97485.97485,0,0,0-.2002-.26709.92066.92066,0,0,0-.293-.18213,1.036,1.036,0,0,0-.3789-.0664h-.09668a1.04465,1.04465,0,0,0-.58594.15185,1.07376,1.07376,0,0,0-.36328.40821,1.884,1.884,0,0,0-.18555.58252,4.28215,4.28215,0,0,0-.05175.68261,4.57754,4.57754,0,0,0,.04785.66407,1.94969,1.94969,0,0,0,.17773.58935,1.1345,1.1345,0,0,0,.36035.42383,1.01815,1.01815,0,0,0,.60059.16211h.08984a.98879.98879,0,0,0,.4043-.07715.91364.91364,0,0,0,.29687-.208,1.01693,1.01693,0,0,0,.19239-.28906,1.1922,1.1922,0,0,0,.09277-.33057Z"/><path class="a" d="M34.85156,14.24316v.80909H33.27783v4.33252h-.85351V15.05225H30.85889v-.80909Z"/><path class="a" d="M54.57848,20.78809a9.18243,9.18243,0,0,1-.60058,2.70312,5.94645,5.94645,0,0,1-1.3877,2.08838,6.195,6.195,0,0,1-2.25976,1.35889,9.56431,9.56431,0,0,1-3.21875.48632,7.83243,7.83243,0,0,1-3.81836-.84375,6.83344,6.83344,0,0,1-2.46-2.26025A9.37868,9.37868,0,0,1,39.517,21.06006a18.92538,18.92538,0,0,1-.38574-3.87647,19.8173,19.8173,0,0,1,.35742-3.8042,9.3151,9.3151,0,0,1,1.25879-3.24707A6.68984,6.68984,0,0,1,43.19274,7.8584,8.00162,8.00162,0,0,1,47.11169,7a9.59493,9.59493,0,0,1,3.17578.47217,6.15381,6.15381,0,0,1,2.24511,1.33008,5.92351,5.92351,0,0,1,1.3877,2.0166,8.27246,8.27246,0,0,1,.60059,2.53174h-2.46a4.99443,4.99443,0,0,0-.415-1.53028,3.966,3.966,0,0,0-.92969-1.2876A4.50646,4.50646,0,0,0,49.27184,9.646a5.38721,5.38721,0,0,0-1.96-.32862h-.37109a5.02518,5.02518,0,0,0-2.67481.64356,4.70812,4.70812,0,0,0-1.65918,1.74463,7.84769,7.84769,0,0,0-.8584,2.51757,17.47021,17.47021,0,0,0-.24316,2.96045,19.38647,19.38647,0,0,0,.21484,2.88965,7.903,7.903,0,0,0,.81543,2.56006,4.82378,4.82378,0,0,0,1.65918,1.81641,4.96532,4.96532,0,0,0,2.7461.68652h.34277A5.3832,5.3832,0,0,0,49.41442,24.75a4.47164,4.47164,0,0,0,1.502-1.01562,4.05222,4.05222,0,0,0,.88672-1.40137,4.42863,4.42863,0,0,0,.28613-1.54492Z"/><path class="a" d="M63.85973,7a8.15534,8.15534,0,0,1,3.96192.8584,6.65843,6.65843,0,0,1,2.46,2.27392,9.3153,9.3153,0,0,1,1.25879,3.24707,19.8173,19.8173,0,0,1,.35742,3.8042,18.92608,18.92608,0,0,1-.38574,3.87647,9.37887,9.37887,0,0,1-1.31641,3.26074,6.80746,6.80746,0,0,1-2.47461,2.26025,7.98311,7.98311,0,0,1-3.86133.84375,7.83643,7.83643,0,0,1-3.81933-.84375,6.84133,6.84133,0,0,1-2.46-2.26025A9.3586,9.3586,0,0,1,56.265,21.06006a18.85635,18.85635,0,0,1-.38672-3.87647,19.73891,19.73891,0,0,1,.3584-3.8042,9.29487,9.29487,0,0,1,1.25781-3.24707A6.69281,6.69281,0,0,1,59.94079,7.8584,7.999,7.999,0,0,1,63.85973,7Zm.17188,18.13623a5.10383,5.10383,0,0,0,2.78906-.68652,4.78866,4.78866,0,0,0,1.67285-1.81641,7.903,7.903,0,0,0,.81543-2.56006,19.38514,19.38514,0,0,0,.21484-2.88965,17.47021,17.47021,0,0,0-.24316-2.96045,7.84745,7.84745,0,0,0-.8584-2.51757A4.66989,4.66989,0,0,0,66.7484,9.96094a5.1,5.1,0,0,0-2.68847-.64356h-.37207a5.02754,5.02754,0,0,0-2.67481.64356,4.70812,4.70812,0,0,0-1.65918,1.74463,7.82327,7.82327,0,0,0-.85742,2.51757,17.371,17.371,0,0,0-.24316,2.96045,19.51746,19.51746,0,0,0,.21386,2.88965,7.92672,7.92672,0,0,0,.81543,2.56006,4.82378,4.82378,0,0,0,1.65918,1.81641,4.96758,4.96758,0,0,0,2.7461.68652Z"/><path class="a" d="M73.50879,18.2383a3.23207,3.23207,0,0,1,.98613-2.55813,4.12172,4.12172,0,0,1,2.81588-.8706,3.77276,3.77276,0,0,1,2.73583.91487,3.4388,3.4388,0,0,1,.94125,2.58481,3.71329,3.71329,0,0,1-.40876,1.821,4.88821,4.88821,0,0,1-1.01222,1.27906,7.92652,7.92652,0,0,1-1.32394.95945q-.71868.41755-1.32334.81723a4.78139,4.78139,0,0,0-1.01221.87939,1.69447,1.69447,0,0,0-.40877,1.13685H81.077v1.93648H73.24254v-1.599A3.64124,3.64124,0,0,1,73.67739,23.71a5.26146,5.26146,0,0,1,1.10136-1.35,9.52207,9.52207,0,0,1,1.43008-1.0395q.76416-.453,1.43068-.897a5.52559,5.52559,0,0,0,1.10137-.94156,1.72365,1.72365,0,0,0,.43484-1.17263,1.6285,1.6285,0,0,0-.46153-1.21689,1.87875,1.87875,0,0,0-1.36821-.453,2.27811,2.27811,0,0,0-.6926.10674,1.63742,1.63742,0,0,0-.98613.826,1.43342,1.43342,0,0,0-.151.66622Z"/></svg>