<svg xmlns="http://www.w3.org/2000/svg" viewBox="0 0 90 35"><defs><style>.a{fill:#fff;}</style></defs><path class="a" d="M20.49365,7.31494h2.37451V27.13867H20.49365V17.95605h-9.583v9.18262h-2.374V7.31494h2.374v8.52442h9.583Z"/><path class="a" d="M36.7417,26.48047a7.396,7.396,0,0,1-1.81641.70117,9.28982,9.28982,0,0,1-2.21728.24316,7.84,7.84,0,0,1-3.81885-.84375,6.83017,6.83017,0,0,1-2.46-2.26074,9.36374,9.36374,0,0,1-1.31592-3.25976,18.89977,18.89977,0,0,1-.38623-3.877,19.817,19.817,0,0,1,.35791-3.8042,9.30876,9.30876,0,0,1,1.26123-3.24707,6.69321,6.69321,0,0,1,2.4502-2.27392A8.02776,8.02776,0,0,1,32.72266,7a8.1764,8.1764,0,0,1,3.96826.8584,6.66191,6.66191,0,0,1,2.46484,2.27392,9.30816,9.30816,0,0,1,1.26074,3.24707,19.77777,19.77777,0,0,1,.3584,3.8042,17.96047,17.96047,0,0,1-.53564,4.44825,8.18129,8.18129,0,0,1-1.86719,3.56152l1.48779,1.94531-1.65918,1.25879Zm-3.84912-1.34375a5.28042,5.28042,0,0,0,2.437-.51563l-2.17871-2.88867,1.6626-1.28711,2.12158,2.832A6.92392,6.92392,0,0,0,38.09082,20.502a18.01986,18.01986,0,0,0,.06689-6.27881,7.84744,7.84744,0,0,0-.85839-2.51757,4.63893,4.63893,0,0,0-1.6875-1.74463,5.18048,5.18048,0,0,0-2.70313-.64356h-.37207a5.02635,5.02635,0,0,0-2.6748.64356,4.708,4.708,0,0,0-1.65918,1.74463,7.83522,7.83522,0,0,0-.85791,2.51757,17.41993,17.41993,0,0,0-.24317,2.96045,19.39,19.39,0,0,0,.21485,2.88965,7.88156,7.88156,0,0,0,.81689,2.55957,4.82654,4.82654,0,0,0,1.66309,1.81641,4.9838,4.9838,0,0,0,2.75244.6875Z"/><path class="a" d="M49.311,10.89014a1.84265,1.84265,0,0,1-.52686,1.25439,1.93962,1.93962,0,0,1-1.40234.46,2.07091,2.07091,0,0,1-1.002-.21924,1.81049,1.81049,0,0,1-.6455-.582,2.41269,2.41269,0,0,1-.34864-.84228,4.72671,4.72671,0,0,1-.104-1.00537,5.16139,5.16139,0,0,1,.09277-.98682,2.36842,2.36842,0,0,1,.33057-.84229,1.71454,1.71454,0,0,1,.64551-.58593,2.16551,2.16551,0,0,1,1.03125-.21924,1.9483,1.9483,0,0,1,1.37646.44531A1.81259,1.81259,0,0,1,49.311,8.96143h-.898a1.127,1.127,0,0,0-.10743-.31543.97467.97467,0,0,0-.20019-.26709.91755.91755,0,0,0-.29346-.18213,1.03137,1.03137,0,0,0-.37842-.06641H47.3374a1.04514,1.04514,0,0,0-.58642.15186,1.07357,1.07357,0,0,0-.36328.4082,1.88412,1.88412,0,0,0-.18555.58252,4.33787,4.33787,0,0,0-.05225.68262,4.57939,4.57939,0,0,0,.04834.66406,1.93046,1.93046,0,0,0,.17822.58984,1.12574,1.12574,0,0,0,.35987.42285,1.01532,1.01532,0,0,0,.60107.16309h.08887a.98551.98551,0,0,0,.4043-.07764.9158.9158,0,0,0,.29687-.208,1.015,1.015,0,0,0,.19287-.28907,1.19181,1.19181,0,0,0,.09278-.33056Z"/><path class="a" d="M51.97461,7.32129a2.18314,2.18314,0,0,1,1.03857.21924,1.7182,1.7182,0,0,1,.64551.58593,2.36842,2.36842,0,0,1,.33057.84229,5.16139,5.16139,0,0,1,.09277.98682,4.72671,4.72671,0,0,1-.104,1.00537,2.41269,2.41269,0,0,1-.34864.84228,1.80265,1.80265,0,0,1-.64941.582,2.41479,2.41479,0,0,1-2.01074,0,1.76681,1.76681,0,0,1-.64551-.582,2.44567,2.44567,0,0,1-.34521-.84228,4.72605,4.72605,0,0,1-.104-1.00537,5.16058,5.16058,0,0,1,.09278-.98682,2.36841,2.36841,0,0,1,.33056-.84229,1.72491,1.72491,0,0,1,.6416-.58593A2.162,2.162,0,0,1,51.97461,7.32129Zm.03711,4.47412a1.05111,1.05111,0,0,0,.6084-.16309,1.13686,1.13686,0,0,0,.37109-.42285,1.8798,1.8798,0,0,0,.18164-.58984,4.578,4.578,0,0,0,.04834-.66406A4.33908,4.33908,0,0,0,53.169,9.273a1.85891,1.85891,0,0,0-.18506-.5791A1.01023,1.01023,0,0,0,52.019,8.1377h-.08886a1.04523,1.04523,0,0,0-.58643.15185,1.11489,1.11489,0,0,0-.36719.4043,1.77619,1.77619,0,0,0-.189.5791,4.33787,4.33787,0,0,0-.05225.68262,4.578,4.578,0,0,0,.04834.66406,1.93046,1.93046,0,0,0,.17822.58984,1.11277,1.11277,0,0,0,.36329.42285,1.03338,1.03338,0,0,0,.605.16309Z"/><path class="a" d="M57.78418,12.5376l-1.30566-2.04785h-.71973V12.5376H54.898V7.39551h1.66211a2.877,2.877,0,0,1,.7456.09277,1.7295,1.7295,0,0,1,.59717.28223,1.31981,1.31981,0,0,1,.397.48193,1.54977,1.54977,0,0,1,.145.69385,1.46456,1.46456,0,0,1-.271.9126,1.40832,1.40832,0,0,1-.75293.49707l1.37256,2.18164Zm-2.02539-4.333V9.68848h.96435a.99666.99666,0,0,0,.63477-.1709.69472.69472,0,0,0,.21143-.57129.656.656,0,0,0-.24122-.56006.97765.97765,0,0,0-.605-.18164Z"/><path class="a" d="M60.28467,10.53418V12.5376h-.853V7.39551h1.6919a2.99783,2.99783,0,0,1,.75292.08935,1.68036,1.68036,0,0,1,.59717.27784,1.25259,1.25259,0,0,1,.38965.48974,1.7168,1.7168,0,0,1,.13721.71631,1.81094,1.81094,0,0,1-.1333.7417,1.22271,1.22271,0,0,1-.37842.48242,1.52564,1.52564,0,0,1-.5791.26367,3.24329,3.24329,0,0,1-.73438.07764Zm0-.80127h1.0166a.92846.92846,0,0,0,.63477-.17432.83011.83011,0,0,0,.21142-.58252.74446.74446,0,0,0-.24121-.57861.92591.92591,0,0,0-.605-.18555h-1.0166Z"/><path class="a" d="M65.56055,7.32129a2.18314,2.18314,0,0,1,1.03857.21924,1.71827,1.71827,0,0,1,.64551.58593,2.3686,2.3686,0,0,1,.33057.84229,5.16139,5.16139,0,0,1,.09277.98682,4.72605,4.72605,0,0,1-.104,1.00537,2.41249,2.41249,0,0,1-.34863.84228,1.80265,1.80265,0,0,1-.64941.582,2.41479,2.41479,0,0,1-2.01074,0,1.76665,1.76665,0,0,1-.64551-.582,2.44587,2.44587,0,0,1-.34522-.84228,4.72671,4.72671,0,0,1-.104-1.00537,5.16139,5.16139,0,0,1,.09277-.98682,2.36842,2.36842,0,0,1,.33057-.84229,1.72491,1.72491,0,0,1,.6416-.58593A2.162,2.162,0,0,1,65.56055,7.32129Zm.03711,4.47412a1.05106,1.05106,0,0,0,.60839-.16309,1.13688,1.13688,0,0,0,.3711-.42285,1.8798,1.8798,0,0,0,.18164-.58984,4.578,4.578,0,0,0,.04834-.66406,4.33787,4.33787,0,0,0-.05225-.68262,1.85865,1.85865,0,0,0-.18506-.5791A1.0102,1.0102,0,0,0,65.605,8.1377h-.08887a1.04522,1.04522,0,0,0-.58642.15185,1.11489,1.11489,0,0,0-.36719.4043,1.77571,1.77571,0,0,0-.189.5791,4.33787,4.33787,0,0,0-.05225.68262,4.578,4.578,0,0,0,.04834.66406,1.93046,1.93046,0,0,0,.17822.58984,1.11283,1.11283,0,0,0,.36328.42285,1.03338,1.03338,0,0,0,.605.16309Z"/><path class="a" d="M71.37012,12.5376l-1.30567-2.04785h-.71972V12.5376h-.86084V7.39551H70.146a2.877,2.877,0,0,1,.7456.09277,1.7295,1.7295,0,0,1,.59717.28223,1.31981,1.31981,0,0,1,.397.48193,1.54977,1.54977,0,0,1,.145.69385,1.46456,1.46456,0,0,1-.271.9126,1.40836,1.40836,0,0,1-.75293.49707l1.37255,2.18164Zm-2.02539-4.333V9.68848h.96435a.99668.99668,0,0,0,.63477-.1709.69474.69474,0,0,0,.21142-.57129.656.656,0,0,0-.24121-.56006.97765.97765,0,0,0-.605-.18164Z"/><path class="a" d="M76.27441,12.5376,75.792,11.26123H73.811l-.48243,1.27637h-.90527l2.00342-5.14209h.75683l2.01807,5.14209ZM74.80518,8.49365l-.69727,1.98877h1.38721Z"/><path class="a" d="M81.05273,7.39551v.80908H79.48v4.333h-.85352v-4.333H77.061V7.39551Z"/><path class="a" d="M84.88867,8.21191H82.55176V9.562h2.19629v.80176H82.55176v1.35742h2.39648v.81641H81.69092V7.39551h3.19775Z"/><path class="a" d="M49.311,17.73779a1.84266,1.84266,0,0,1-.52686,1.2544,1.93962,1.93962,0,0,1-1.40234.46,2.06524,2.06524,0,0,1-1.002-.21973,1.80159,1.80159,0,0,1-.6455-.582,2.4103,2.4103,0,0,1-.34864-.8418,4.72657,4.72657,0,0,1-.104-1.00537,5.16121,5.16121,0,0,1,.09277-.98681,2.36842,2.36842,0,0,1,.33057-.84229,1.71448,1.71448,0,0,1,.64551-.58594,2.16563,2.16563,0,0,1,1.03125-.21923,1.94826,1.94826,0,0,1,1.37646.44531,1.81254,1.81254,0,0,1,.55274,1.19482h-.898a1.12724,1.12724,0,0,0-.10743-.31543.97482.97482,0,0,0-.20019-.26709.91773.91773,0,0,0-.29346-.18213,1.03158,1.03158,0,0,0-.37842-.0664H47.3374a1.04522,1.04522,0,0,0-.58642.15185,1.07367,1.07367,0,0,0-.36328.40821,1.884,1.884,0,0,0-.18555.58252,4.33783,4.33783,0,0,0-.05225.68261,4.57943,4.57943,0,0,0,.04834.66407,1.92318,1.92318,0,0,0,.17822.58935,1.12888,1.12888,0,0,0,.35987.42383,1.01869,1.01869,0,0,0,.60107.16211h.08887a.98558.98558,0,0,0,.4043-.07715.90845.90845,0,0,0,.29687-.208,1.00836,1.00836,0,0,0,.19287-.28906,1.19188,1.19188,0,0,0,.09278-.33057Z"/><path class="a" d="M53.39941,19.38477,52.917,18.10938H50.936l-.48243,1.27539h-.90527l2.00342-5.14161h.75683l2.01807,5.14161Zm-1.46923-4.04346-.69727,1.98877h1.38721Z"/><path class="a" d="M54.76465,14.24316h.8457v2.93848a3.11374,3.11374,0,0,0,.04834.55615,1.38263,1.38263,0,0,0,.17432.4751.933.933,0,0,0,.35254.334,1.19061,1.19061,0,0,0,.58252.126,1.15669,1.15669,0,0,0,.564-.12207.988.988,0,0,0,.356-.32617,1.30957,1.30957,0,0,0,.18555-.47559,3.00179,3.00179,0,0,0,.05175-.56738V14.24316h.84619v3.02a3.46625,3.46625,0,0,1-.11132.9126,1.7853,1.7853,0,0,1-.35254.69336,1.53821,1.53821,0,0,1-.61573.4375,2.41552,2.41552,0,0,1-.90918.15234,2.48889,2.48889,0,0,1-.99023-.16992,1.543,1.543,0,0,1-.61963-.4707,1.78022,1.78022,0,0,1-.31933-.69824,3.92868,3.92868,0,0,1-.08887-.85694Z"/><path class="a" d="M62.43652,15.668a.58888.58888,0,0,0-.07422-.28955.80617.80617,0,0,0-.2041-.23731.99174.99174,0,0,0-.3042-.16308,1.13268,1.13268,0,0,0-.36718-.05957,1.19485,1.19485,0,0,0-.70118.18554.5532.5532,0,0,0-.26367.46729.42682.42682,0,0,0,.12256.31543.95423.95423,0,0,0,.32666.2041,3.417,3.417,0,0,0,.46.14453q.25561.063.52686.13721a4.8064,4.8064,0,0,1,.52685.17822,1.62051,1.62051,0,0,1,.46.28223,1.32267,1.32267,0,0,1,.32618.4375,1.48484,1.48484,0,0,1,.12255.63818,1.4669,1.4669,0,0,1-.15185.68994,1.399,1.399,0,0,1-.4082.47852,1.80171,1.80171,0,0,1-.59375.28223,2.70525,2.70525,0,0,1-.71582.09277,3.42412,3.42412,0,0,1-.79786-.08887,1.83272,1.83272,0,0,1-.63818-.28223,1.34952,1.34952,0,0,1-.42627-.49707,1.59381,1.59381,0,0,1-.15625-.73486h.92041a.834.834,0,0,0,.11865.34912.93245.93245,0,0,0,.24121.2627,1.03592,1.03592,0,0,0,.334.16406,1.42446,1.42446,0,0,0,.4043.05469,1.263,1.263,0,0,0,.65283-.18848.80972.80972,0,0,0,.24463-.2334.60866.60866,0,0,0-.11475-.79052,1.63281,1.63281,0,0,0-.52685-.25245q-.31568-.09228-.68262-.167a2.76048,2.76048,0,0,1-.68262-.23,1.45573,1.45573,0,0,1-.52685-.4375,1.28629,1.28629,0,0,1-.21143-.78662,1.33,1.33,0,0,1,.13721-.61572,1.27725,1.27725,0,0,1,.37451-.44532,1.72058,1.72058,0,0,1,.56055-.271,2.53951,2.53951,0,0,1,.70117-.09277,2.65479,2.65479,0,0,1,.8125.11132,1.58616,1.58616,0,0,1,.57129.31153,1.29762,1.29762,0,0,1,.3413.47509,1.54041,1.54041,0,0,1,.11475.60108Z"/><path class="a" d="M67.40039,15.05957H65.06348v1.3501h2.19629v.80176H65.06348v1.35693H67.46v.81641H64.20264V14.24316h3.19775Z"/></svg>